<mxfile host="65bd71144e">
    <diagram id="aZBsela_iBabBjxoOiq0" name="Page-1">
        <mxGraphModel dx="1841" dy="1948" grid="1" gridSize="10" guides="1" tooltips="1" connect="1" arrows="1" fold="1" page="1" pageScale="1" pageWidth="827" pageHeight="1169" math="0" shadow="0">
            <root>
                <mxCell id="0"/>
                <mxCell id="1" parent="0"/>
                <mxCell id="531" style="edgeStyle=orthogonalEdgeStyle;rounded=0;orthogonalLoop=1;jettySize=auto;html=1;entryX=0;entryY=0.5;entryDx=0;entryDy=0;" parent="1" source="537" target="559" edge="1">
                    <mxGeometry relative="1" as="geometry">
                        <Array as="points">
                            <mxPoint x="2617" y="365"/>
                        </Array>
                    </mxGeometry>
                </mxCell>
                <mxCell id="532" style="edgeStyle=orthogonalEdgeStyle;rounded=0;orthogonalLoop=1;jettySize=auto;html=1;entryX=0;entryY=0.5;entryDx=0;entryDy=0;" parent="1" source="537" target="561" edge="1">
                    <mxGeometry relative="1" as="geometry">
                        <Array as="points">
                            <mxPoint x="2617" y="445"/>
                        </Array>
                    </mxGeometry>
                </mxCell>
                <mxCell id="533" style="edgeStyle=orthogonalEdgeStyle;rounded=0;orthogonalLoop=1;jettySize=auto;html=1;entryX=0;entryY=0.5;entryDx=0;entryDy=0;" parent="1" source="537" target="563" edge="1">
                    <mxGeometry relative="1" as="geometry">
                        <Array as="points">
                            <mxPoint x="2617" y="515"/>
                        </Array>
                    </mxGeometry>
                </mxCell>
                <mxCell id="534" style="edgeStyle=orthogonalEdgeStyle;rounded=0;orthogonalLoop=1;jettySize=auto;html=1;entryX=0;entryY=0.5;entryDx=0;entryDy=0;" parent="1" source="537" target="565" edge="1">
                    <mxGeometry relative="1" as="geometry">
                        <Array as="points">
                            <mxPoint x="2617" y="605"/>
                        </Array>
                    </mxGeometry>
                </mxCell>
                <mxCell id="535" style="edgeStyle=orthogonalEdgeStyle;rounded=0;orthogonalLoop=1;jettySize=auto;html=1;entryX=0;entryY=0.5;entryDx=0;entryDy=0;" parent="1" source="537" target="590" edge="1">
                    <mxGeometry relative="1" as="geometry">
                        <Array as="points">
                            <mxPoint x="2617" y="685"/>
                        </Array>
                    </mxGeometry>
                </mxCell>
                <mxCell id="536" style="edgeStyle=orthogonalEdgeStyle;rounded=0;orthogonalLoop=1;jettySize=auto;html=1;entryX=0;entryY=0.5;entryDx=0;entryDy=0;" parent="1" source="537" target="694" edge="1">
                    <mxGeometry relative="1" as="geometry"/>
                </mxCell>
                <mxCell id="537" value="DashBoard&lt;div&gt;Usuarios&lt;/div&gt;" style="rounded=0;whiteSpace=wrap;html=1;" parent="1" vertex="1">
                    <mxGeometry x="2557" y="220" width="120" height="60" as="geometry"/>
                </mxCell>
                <mxCell id="538" style="edgeStyle=orthogonalEdgeStyle;rounded=0;orthogonalLoop=1;jettySize=auto;html=1;" parent="1" source="545" target="546" edge="1">
                    <mxGeometry relative="1" as="geometry">
                        <Array as="points">
                            <mxPoint x="40" y="490"/>
                            <mxPoint x="40" y="550"/>
                        </Array>
                    </mxGeometry>
                </mxCell>
                <mxCell id="539" style="edgeStyle=orthogonalEdgeStyle;rounded=0;orthogonalLoop=1;jettySize=auto;html=1;entryX=0;entryY=0.5;entryDx=0;entryDy=0;" parent="1" source="545" target="547" edge="1">
                    <mxGeometry relative="1" as="geometry"/>
                </mxCell>
                <mxCell id="540" style="edgeStyle=orthogonalEdgeStyle;rounded=0;orthogonalLoop=1;jettySize=auto;html=1;entryX=0;entryY=0.5;entryDx=0;entryDy=0;startArrow=none;" parent="1" target="548" edge="1">
                    <mxGeometry relative="1" as="geometry">
                        <mxPoint x="20" y="490" as="sourcePoint"/>
                        <Array as="points">
                            <mxPoint x="40" y="490"/>
                            <mxPoint x="40" y="705"/>
                        </Array>
                    </mxGeometry>
                </mxCell>
                <mxCell id="541" style="edgeStyle=orthogonalEdgeStyle;rounded=0;orthogonalLoop=1;jettySize=auto;html=1;entryX=0;entryY=0.5;entryDx=0;entryDy=0;" parent="1" source="545" target="557" edge="1">
                    <mxGeometry relative="1" as="geometry"/>
                </mxCell>
                <mxCell id="542" style="edgeStyle=orthogonalEdgeStyle;rounded=0;orthogonalLoop=1;jettySize=auto;html=1;entryX=0;entryY=0.5;entryDx=0;entryDy=0;" parent="1" source="545" target="556" edge="1">
                    <mxGeometry relative="1" as="geometry"/>
                </mxCell>
                <mxCell id="543" style="edgeStyle=orthogonalEdgeStyle;rounded=0;orthogonalLoop=1;jettySize=auto;html=1;entryX=0;entryY=0.5;entryDx=0;entryDy=0;" parent="1" source="545" target="566" edge="1">
                    <mxGeometry relative="1" as="geometry"/>
                </mxCell>
                <mxCell id="544" style="edgeStyle=orthogonalEdgeStyle;rounded=0;orthogonalLoop=1;jettySize=auto;html=1;entryX=0;entryY=0.5;entryDx=0;entryDy=0;" parent="1" source="545" target="567" edge="1">
                    <mxGeometry relative="1" as="geometry"/>
                </mxCell>
                <mxCell id="721" style="edgeStyle=none;html=1;entryX=0.026;entryY=0.717;entryDx=0;entryDy=0;entryPerimeter=0;fontSize=17;" parent="1" source="545" target="720" edge="1">
                    <mxGeometry relative="1" as="geometry">
                        <Array as="points">
                            <mxPoint x="-80" y="490"/>
                            <mxPoint x="-70" y="860"/>
                            <mxPoint x="-70" y="1200"/>
                            <mxPoint x="-70" y="1538"/>
                            <mxPoint x="-70" y="1560"/>
                        </Array>
                    </mxGeometry>
                </mxCell>
                <mxCell id="726" style="edgeStyle=none;html=1;entryX=0;entryY=0.5;entryDx=0;entryDy=0;fontSize=17;" parent="1" source="545" target="549" edge="1">
                    <mxGeometry relative="1" as="geometry">
                        <Array as="points">
                            <mxPoint x="40" y="490"/>
                            <mxPoint x="40" y="780"/>
                        </Array>
                    </mxGeometry>
                </mxCell>
                <mxCell id="545" value="SIGNIN" style="rounded=0;whiteSpace=wrap;html=1;" parent="1" vertex="1">
                    <mxGeometry x="-300" y="460" width="120" height="60" as="geometry"/>
                </mxCell>
                <mxCell id="546" value="PrimerNombre" style="ellipse;whiteSpace=wrap;html=1;" parent="1" vertex="1">
                    <mxGeometry x="260" y="530" width="220" height="50" as="geometry"/>
                </mxCell>
                <mxCell id="547" value="SegundoNombre" style="ellipse;whiteSpace=wrap;html=1;" parent="1" vertex="1">
                    <mxGeometry x="260" y="600" width="220" height="50" as="geometry"/>
                </mxCell>
                <mxCell id="548" value="PrimerApellido" style="ellipse;whiteSpace=wrap;html=1;" parent="1" vertex="1">
                    <mxGeometry x="260" y="680" width="220" height="50" as="geometry"/>
                </mxCell>
                <mxCell id="549" value="SegundoApellido" style="ellipse;whiteSpace=wrap;html=1;" parent="1" vertex="1">
                    <mxGeometry x="260" y="755" width="220" height="50" as="geometry"/>
                </mxCell>
                <mxCell id="550" value="FechaNacimiento" style="ellipse;whiteSpace=wrap;html=1;" parent="1" vertex="1">
                    <mxGeometry x="827" y="450" width="240" height="60" as="geometry"/>
                </mxCell>
                <mxCell id="551" value="PaisNacimiento" style="ellipse;whiteSpace=wrap;html=1;" parent="1" vertex="1">
                    <mxGeometry x="827" y="540" width="240" height="60" as="geometry"/>
                </mxCell>
                <mxCell id="552" value="DepartamentoNacimiento" style="ellipse;whiteSpace=wrap;html=1;" parent="1" vertex="1">
                    <mxGeometry x="827" y="630" width="240" height="60" as="geometry"/>
                </mxCell>
                <mxCell id="553" value="MunicipioNacimiento" style="ellipse;whiteSpace=wrap;html=1;" parent="1" vertex="1">
                    <mxGeometry x="827" y="730" width="240" height="60" as="geometry"/>
                </mxCell>
                <mxCell id="554" value="FechaExpedicionDocumento" style="ellipse;whiteSpace=wrap;html=1;" parent="1" vertex="1">
                    <mxGeometry x="827" y="830" width="240" height="60" as="geometry"/>
                </mxCell>
                <mxCell id="555" value="PaisExpedicion" style="ellipse;whiteSpace=wrap;html=1;" parent="1" vertex="1">
                    <mxGeometry x="827" y="920" width="240" height="60" as="geometry"/>
                </mxCell>
                <mxCell id="556" value="NumeroDocumento" style="ellipse;whiteSpace=wrap;html=1;" parent="1" vertex="1">
                    <mxGeometry x="35" y="1235" width="235" height="60" as="geometry"/>
                </mxCell>
                <mxCell id="557" value="TipoDocumento" style="ellipse;whiteSpace=wrap;html=1;" parent="1" vertex="1">
                    <mxGeometry x="37.5" y="1145" width="235" height="60" as="geometry"/>
                </mxCell>
                <mxCell id="558" style="edgeStyle=orthogonalEdgeStyle;rounded=0;orthogonalLoop=1;jettySize=auto;html=1;entryX=0;entryY=0.5;entryDx=0;entryDy=0;" parent="1" source="559" target="623" edge="1">
                    <mxGeometry relative="1" as="geometry"/>
                </mxCell>
                <mxCell id="559" value="MiPerfil" style="ellipse;whiteSpace=wrap;html=1;" parent="1" vertex="1">
                    <mxGeometry x="2692" y="340" width="170" height="50" as="geometry"/>
                </mxCell>
                <mxCell id="560" style="edgeStyle=orthogonalEdgeStyle;rounded=0;orthogonalLoop=1;jettySize=auto;html=1;entryX=0;entryY=0.5;entryDx=0;entryDy=0;" parent="1" source="561" target="647" edge="1">
                    <mxGeometry relative="1" as="geometry">
                        <Array as="points">
                            <mxPoint x="3147" y="445"/>
                            <mxPoint x="3147" y="670"/>
                            <mxPoint x="3827" y="670"/>
                        </Array>
                    </mxGeometry>
                </mxCell>
                <mxCell id="561" value="MiHojaVida" style="ellipse;whiteSpace=wrap;html=1;" parent="1" vertex="1">
                    <mxGeometry x="2692" y="420" width="170" height="50" as="geometry"/>
                </mxCell>
                <mxCell id="562" style="edgeStyle=orthogonalEdgeStyle;rounded=0;orthogonalLoop=1;jettySize=auto;html=1;entryX=0;entryY=0.5;entryDx=0;entryDy=0;" parent="1" source="563" target="633" edge="1">
                    <mxGeometry relative="1" as="geometry"/>
                </mxCell>
                <mxCell id="563" value="BuscarOfertas" style="ellipse;whiteSpace=wrap;html=1;" parent="1" vertex="1">
                    <mxGeometry x="2692" y="490" width="170" height="50" as="geometry"/>
                </mxCell>
                <mxCell id="564" style="edgeStyle=orthogonalEdgeStyle;rounded=0;orthogonalLoop=1;jettySize=auto;html=1;entryX=0.5;entryY=0;entryDx=0;entryDy=0;" parent="1" source="565" target="640" edge="1">
                    <mxGeometry relative="1" as="geometry">
                        <Array as="points">
                            <mxPoint x="2997" y="605"/>
                            <mxPoint x="2997" y="940"/>
                            <mxPoint x="3037" y="940"/>
                        </Array>
                    </mxGeometry>
                </mxCell>
                <mxCell id="565" value="Notificaciones" style="ellipse;whiteSpace=wrap;html=1;" parent="1" vertex="1">
                    <mxGeometry x="2692" y="580" width="170" height="50" as="geometry"/>
                </mxCell>
                <mxCell id="566" value="CorreoElectronico" style="ellipse;whiteSpace=wrap;html=1;" parent="1" vertex="1">
                    <mxGeometry x="37.5" y="1325" width="235" height="60" as="geometry"/>
                </mxCell>
                <mxCell id="567" value="Contraseña" style="ellipse;whiteSpace=wrap;html=1;" parent="1" vertex="1">
                    <mxGeometry x="35" y="1415" width="235" height="60" as="geometry"/>
                </mxCell>
                <mxCell id="568" style="edgeStyle=orthogonalEdgeStyle;rounded=0;orthogonalLoop=1;jettySize=auto;html=1;entryX=1;entryY=0.5;entryDx=0;entryDy=0;" parent="1" source="578" target="550" edge="1">
                    <mxGeometry relative="1" as="geometry"/>
                </mxCell>
                <mxCell id="569" style="edgeStyle=orthogonalEdgeStyle;rounded=0;orthogonalLoop=1;jettySize=auto;html=1;entryX=1;entryY=0.5;entryDx=0;entryDy=0;" parent="1" source="578" target="551" edge="1">
                    <mxGeometry relative="1" as="geometry"/>
                </mxCell>
                <mxCell id="570" style="edgeStyle=orthogonalEdgeStyle;rounded=0;orthogonalLoop=1;jettySize=auto;html=1;entryX=1;entryY=0.5;entryDx=0;entryDy=0;" parent="1" source="578" target="552" edge="1">
                    <mxGeometry relative="1" as="geometry"/>
                </mxCell>
                <mxCell id="571" style="edgeStyle=orthogonalEdgeStyle;rounded=0;orthogonalLoop=1;jettySize=auto;html=1;entryX=1;entryY=0.5;entryDx=0;entryDy=0;" parent="1" source="578" target="553" edge="1">
                    <mxGeometry relative="1" as="geometry"/>
                </mxCell>
                <mxCell id="572" style="edgeStyle=orthogonalEdgeStyle;rounded=0;orthogonalLoop=1;jettySize=auto;html=1;entryX=1;entryY=0.5;entryDx=0;entryDy=0;" parent="1" source="578" target="554" edge="1">
                    <mxGeometry relative="1" as="geometry"/>
                </mxCell>
                <mxCell id="573" style="edgeStyle=orthogonalEdgeStyle;rounded=0;orthogonalLoop=1;jettySize=auto;html=1;entryX=0;entryY=0.5;entryDx=0;entryDy=0;" parent="1" source="578" target="584" edge="1">
                    <mxGeometry relative="1" as="geometry">
                        <mxPoint x="1147" y="440" as="targetPoint"/>
                        <Array as="points">
                            <mxPoint x="1107" y="390"/>
                        </Array>
                    </mxGeometry>
                </mxCell>
                <mxCell id="574" style="edgeStyle=orthogonalEdgeStyle;rounded=0;orthogonalLoop=1;jettySize=auto;html=1;entryX=0;entryY=0.5;entryDx=0;entryDy=0;" parent="1" target="579" edge="1">
                    <mxGeometry relative="1" as="geometry">
                        <mxPoint x="1077" y="259.9565217391304" as="sourcePoint"/>
                        <mxPoint x="1106.9999999999995" y="610" as="targetPoint"/>
                        <Array as="points">
                            <mxPoint x="1107" y="260"/>
                            <mxPoint x="1107" y="600"/>
                        </Array>
                    </mxGeometry>
                </mxCell>
                <mxCell id="575" style="edgeStyle=orthogonalEdgeStyle;rounded=0;orthogonalLoop=1;jettySize=auto;html=1;entryX=0;entryY=0.5;entryDx=0;entryDy=0;" parent="1" source="578" target="610" edge="1">
                    <mxGeometry relative="1" as="geometry">
                        <Array as="points">
                            <mxPoint x="1107" y="690"/>
                        </Array>
                    </mxGeometry>
                </mxCell>
                <mxCell id="576" style="edgeStyle=orthogonalEdgeStyle;rounded=0;orthogonalLoop=1;jettySize=auto;html=1;entryX=0;entryY=0.5;entryDx=0;entryDy=0;" parent="1" source="578" target="611" edge="1">
                    <mxGeometry relative="1" as="geometry">
                        <Array as="points">
                            <mxPoint x="1107" y="805"/>
                        </Array>
                    </mxGeometry>
                </mxCell>
                <mxCell id="577" style="edgeStyle=orthogonalEdgeStyle;rounded=0;orthogonalLoop=1;jettySize=auto;html=1;entryX=0;entryY=0.5;entryDx=0;entryDy=0;" parent="1" source="578" target="618" edge="1">
                    <mxGeometry relative="1" as="geometry"/>
                </mxCell>
                <mxCell id="578" value="Datos&lt;div&gt;HojadeVida&lt;/div&gt;" style="rounded=0;whiteSpace=wrap;html=1;" parent="1" vertex="1">
                    <mxGeometry x="1027" y="220" width="120" height="60" as="geometry"/>
                </mxCell>
                <mxCell id="579" value="Genero" style="ellipse;whiteSpace=wrap;html=1;" parent="1" vertex="1">
                    <mxGeometry x="1177" y="570" width="240" height="60" as="geometry"/>
                </mxCell>
                <mxCell id="580" value="LocalidadResidencia" style="ellipse;whiteSpace=wrap;html=1;" parent="1" vertex="1">
                    <mxGeometry x="1957" y="535" width="240" height="60" as="geometry"/>
                </mxCell>
                <mxCell id="581" value="NumeroContacto" style="ellipse;whiteSpace=wrap;html=1;" parent="1" vertex="1">
                    <mxGeometry x="1577" y="940" width="240" height="60" as="geometry"/>
                </mxCell>
                <mxCell id="582" value="PaisResidencia" style="ellipse;whiteSpace=wrap;html=1;" parent="1" vertex="1">
                    <mxGeometry x="1957" y="415" width="240" height="60" as="geometry"/>
                </mxCell>
                <mxCell id="583" value="MunicipioExpedicion" style="ellipse;whiteSpace=wrap;html=1;" parent="1" vertex="1">
                    <mxGeometry x="1165" y="450" width="240" height="60" as="geometry"/>
                </mxCell>
                <mxCell id="584" value="DepartamentoExpedicion" style="ellipse;whiteSpace=wrap;html=1;" parent="1" vertex="1">
                    <mxGeometry x="1161" y="360" width="240" height="60" as="geometry"/>
                </mxCell>
                <mxCell id="585" value="DireccionResidencia" style="ellipse;whiteSpace=wrap;html=1;" parent="1" vertex="1">
                    <mxGeometry x="1957" y="620" width="240" height="60" as="geometry"/>
                </mxCell>
                <mxCell id="586" value="CodigoPostal" style="ellipse;whiteSpace=wrap;html=1;" parent="1" vertex="1">
                    <mxGeometry x="1967" y="725" width="240" height="60" as="geometry"/>
                </mxCell>
                <mxCell id="587" style="edgeStyle=orthogonalEdgeStyle;rounded=0;orthogonalLoop=1;jettySize=auto;html=1;entryX=1;entryY=0.667;entryDx=0;entryDy=0;entryPerimeter=0;" parent="1" source="578" target="555" edge="1">
                    <mxGeometry relative="1" as="geometry"/>
                </mxCell>
                <mxCell id="588" style="edgeStyle=orthogonalEdgeStyle;rounded=0;orthogonalLoop=1;jettySize=auto;html=1;entryX=-0.005;entryY=0.621;entryDx=0;entryDy=0;entryPerimeter=0;" parent="1" source="578" target="583" edge="1">
                    <mxGeometry relative="1" as="geometry">
                        <Array as="points">
                            <mxPoint x="1107" y="487"/>
                        </Array>
                    </mxGeometry>
                </mxCell>
                <mxCell id="589" style="edgeStyle=orthogonalEdgeStyle;rounded=0;orthogonalLoop=1;jettySize=auto;html=1;entryX=0.5;entryY=0;entryDx=0;entryDy=0;" parent="1" source="590" target="639" edge="1">
                    <mxGeometry relative="1" as="geometry"/>
                </mxCell>
                <mxCell id="590" value="PoliticasPrivacidad" style="ellipse;whiteSpace=wrap;html=1;" parent="1" vertex="1">
                    <mxGeometry x="2692" y="660" width="170" height="50" as="geometry"/>
                </mxCell>
                <mxCell id="591" style="edgeStyle=orthogonalEdgeStyle;rounded=0;orthogonalLoop=1;jettySize=auto;html=1;" parent="1" source="594" target="545" edge="1">
                    <mxGeometry relative="1" as="geometry"/>
                </mxCell>
                <mxCell id="592" value="No&amp;nbsp;" style="edgeLabel;html=1;align=center;verticalAlign=middle;resizable=0;points=[];" parent="591" vertex="1" connectable="0">
                    <mxGeometry x="0.6547" y="1" relative="1" as="geometry">
                        <mxPoint as="offset"/>
                    </mxGeometry>
                </mxCell>
                <mxCell id="593" style="edgeStyle=orthogonalEdgeStyle;rounded=0;orthogonalLoop=1;jettySize=auto;html=1;exitX=1;exitY=0.5;exitDx=0;exitDy=0;" parent="1" source="594" target="578" edge="1">
                    <mxGeometry relative="1" as="geometry">
                        <Array as="points">
                            <mxPoint x="1087" y="205"/>
                        </Array>
                    </mxGeometry>
                </mxCell>
                <mxCell id="594" value="Escribe" style="rhombus;whiteSpace=wrap;html=1;" parent="1" vertex="1">
                    <mxGeometry x="460" y="150" width="180" height="110" as="geometry"/>
                </mxCell>
                <mxCell id="595" style="edgeStyle=orthogonalEdgeStyle;rounded=0;orthogonalLoop=1;jettySize=auto;html=1;" parent="1" source="596" target="594" edge="1">
                    <mxGeometry relative="1" as="geometry"/>
                </mxCell>
                <mxCell id="596" value="Inicio" style="rhombus;whiteSpace=wrap;html=1;" parent="1" vertex="1">
                    <mxGeometry x="-730" y="142.5" width="220" height="125" as="geometry"/>
                </mxCell>
                <mxCell id="597" style="edgeStyle=orthogonalEdgeStyle;rounded=0;orthogonalLoop=1;jettySize=auto;html=1;entryX=0.5;entryY=1;entryDx=0;entryDy=0;" parent="1" source="599" target="602" edge="1">
                    <mxGeometry relative="1" as="geometry">
                        <mxPoint x="-220" y="-40" as="targetPoint"/>
                        <Array as="points">
                            <mxPoint x="-240" y="60"/>
                            <mxPoint x="-240" y="60"/>
                        </Array>
                    </mxGeometry>
                </mxCell>
                <mxCell id="598" value="Si" style="edgeLabel;html=1;align=center;verticalAlign=middle;resizable=0;points=[];" parent="597" vertex="1" connectable="0">
                    <mxGeometry x="-0.4428" y="2" relative="1" as="geometry">
                        <mxPoint as="offset"/>
                    </mxGeometry>
                </mxCell>
                <mxCell id="599" value="¿TIene usuario?" style="rounded=0;whiteSpace=wrap;html=1;" parent="1" vertex="1">
                    <mxGeometry x="-300" y="180" width="120" height="60" as="geometry"/>
                </mxCell>
                <mxCell id="600" style="edgeStyle=orthogonalEdgeStyle;rounded=0;orthogonalLoop=1;jettySize=auto;html=1;entryX=0;entryY=0.5;entryDx=0;entryDy=0;" parent="1" source="602" target="603" edge="1">
                    <mxGeometry relative="1" as="geometry"/>
                </mxCell>
                <mxCell id="601" style="edgeStyle=orthogonalEdgeStyle;rounded=0;orthogonalLoop=1;jettySize=auto;html=1;" parent="1" source="602" target="604" edge="1">
                    <mxGeometry relative="1" as="geometry"/>
                </mxCell>
                <mxCell id="602" value="LogIn" style="rounded=0;whiteSpace=wrap;html=1;" parent="1" vertex="1">
                    <mxGeometry x="-300" y="-120" width="120" height="60" as="geometry"/>
                </mxCell>
                <mxCell id="603" value="CorreoElectronico" style="ellipse;whiteSpace=wrap;html=1;" parent="1" vertex="1">
                    <mxGeometry x="-80" y="-180" width="180" height="50" as="geometry"/>
                </mxCell>
                <mxCell id="604" value="Contraseña&amp;nbsp;" style="ellipse;whiteSpace=wrap;html=1;" parent="1" vertex="1">
                    <mxGeometry x="-80" y="-80" width="180" height="60" as="geometry"/>
                </mxCell>
                <mxCell id="605" value="CorreoElectroico" style="ellipse;whiteSpace=wrap;html=1;" parent="1" vertex="1">
                    <mxGeometry x="1587" y="1020" width="240" height="60" as="geometry"/>
                </mxCell>
                <mxCell id="606" style="edgeStyle=orthogonalEdgeStyle;rounded=0;orthogonalLoop=1;jettySize=auto;html=1;entryX=0;entryY=0.5;entryDx=0;entryDy=0;" parent="1" source="610" target="582" edge="1">
                    <mxGeometry relative="1" as="geometry"/>
                </mxCell>
                <mxCell id="607" style="edgeStyle=orthogonalEdgeStyle;rounded=0;orthogonalLoop=1;jettySize=auto;html=1;entryX=0;entryY=0.5;entryDx=0;entryDy=0;" parent="1" source="610" target="580" edge="1">
                    <mxGeometry relative="1" as="geometry"/>
                </mxCell>
                <mxCell id="608" style="edgeStyle=orthogonalEdgeStyle;rounded=0;orthogonalLoop=1;jettySize=auto;html=1;" parent="1" source="610" target="585" edge="1">
                    <mxGeometry relative="1" as="geometry"/>
                </mxCell>
                <mxCell id="609" style="edgeStyle=orthogonalEdgeStyle;rounded=0;orthogonalLoop=1;jettySize=auto;html=1;" parent="1" source="610" target="586" edge="1">
                    <mxGeometry relative="1" as="geometry">
                        <Array as="points">
                            <mxPoint x="1937" y="690"/>
                            <mxPoint x="1937" y="755"/>
                        </Array>
                    </mxGeometry>
                </mxCell>
                <mxCell id="610" value="DIreccionUsuario" style="ellipse;whiteSpace=wrap;html=1;" parent="1" vertex="1">
                    <mxGeometry x="1177" y="660" width="240" height="60" as="geometry"/>
                </mxCell>
                <mxCell id="611" value="ContactoUsuario" style="ellipse;whiteSpace=wrap;html=1;" parent="1" vertex="1">
                    <mxGeometry x="1177" y="775" width="240" height="60" as="geometry"/>
                </mxCell>
                <mxCell id="612" value="" style="edgeStyle=orthogonalEdgeStyle;rounded=0;orthogonalLoop=1;jettySize=auto;html=1;entryX=0;entryY=0.5;entryDx=0;entryDy=0;" parent="1" source="611" target="615" edge="1">
                    <mxGeometry relative="1" as="geometry">
                        <mxPoint x="1417" y="805" as="sourcePoint"/>
                        <mxPoint x="1497" y="970" as="targetPoint"/>
                        <Array as="points"/>
                    </mxGeometry>
                </mxCell>
                <mxCell id="613" style="edgeStyle=orthogonalEdgeStyle;rounded=0;orthogonalLoop=1;jettySize=auto;html=1;entryX=0;entryY=0.5;entryDx=0;entryDy=0;" parent="1" source="615" target="605" edge="1">
                    <mxGeometry relative="1" as="geometry">
                        <Array as="points">
                            <mxPoint x="1527" y="875"/>
                            <mxPoint x="1527" y="1050"/>
                        </Array>
                    </mxGeometry>
                </mxCell>
                <mxCell id="614" style="edgeStyle=orthogonalEdgeStyle;rounded=0;orthogonalLoop=1;jettySize=auto;html=1;entryX=0;entryY=0.5;entryDx=0;entryDy=0;" parent="1" source="615" target="581" edge="1">
                    <mxGeometry relative="1" as="geometry"/>
                </mxCell>
                <mxCell id="615" value="Tiene" style="rhombus;whiteSpace=wrap;html=1;" parent="1" vertex="1">
                    <mxGeometry x="1401" y="835" width="80" height="80" as="geometry"/>
                </mxCell>
                <mxCell id="616" value="Tiene" style="rhombus;whiteSpace=wrap;html=1;" parent="1" vertex="1">
                    <mxGeometry x="1517" y="650" width="80" height="80" as="geometry"/>
                </mxCell>
                <mxCell id="617" style="edgeStyle=orthogonalEdgeStyle;rounded=0;orthogonalLoop=1;jettySize=auto;html=1;entryX=0;entryY=0.5;entryDx=0;entryDy=0;" parent="1" source="618" target="537" edge="1">
                    <mxGeometry relative="1" as="geometry"/>
                </mxCell>
                <mxCell id="618" value="Saca" style="rhombus;whiteSpace=wrap;html=1;" parent="1" vertex="1">
                    <mxGeometry x="1807" y="210" width="80" height="80" as="geometry"/>
                </mxCell>
                <mxCell id="619" style="edgeStyle=orthogonalEdgeStyle;rounded=0;orthogonalLoop=1;jettySize=auto;html=1;entryX=0;entryY=0.5;entryDx=0;entryDy=0;" parent="1" source="623" target="624" edge="1">
                    <mxGeometry relative="1" as="geometry"/>
                </mxCell>
                <mxCell id="620" style="edgeStyle=orthogonalEdgeStyle;rounded=0;orthogonalLoop=1;jettySize=auto;html=1;entryX=0;entryY=0.5;entryDx=0;entryDy=0;" parent="1" source="623" target="625" edge="1">
                    <mxGeometry relative="1" as="geometry">
                        <Array as="points">
                            <mxPoint x="3307" y="365"/>
                            <mxPoint x="3307" y="465"/>
                        </Array>
                    </mxGeometry>
                </mxCell>
                <mxCell id="621" style="edgeStyle=orthogonalEdgeStyle;rounded=0;orthogonalLoop=1;jettySize=auto;html=1;entryX=0;entryY=0.5;entryDx=0;entryDy=0;" parent="1" source="623" target="626" edge="1">
                    <mxGeometry relative="1" as="geometry"/>
                </mxCell>
                <mxCell id="622" style="edgeStyle=orthogonalEdgeStyle;rounded=0;orthogonalLoop=1;jettySize=auto;html=1;entryX=0;entryY=0.5;entryDx=0;entryDy=0;" parent="1" source="623" target="627" edge="1">
                    <mxGeometry relative="1" as="geometry"/>
                </mxCell>
                <mxCell id="623" value="Tiene" style="rhombus;whiteSpace=wrap;html=1;" parent="1" vertex="1">
                    <mxGeometry x="3157" y="325" width="80" height="80" as="geometry"/>
                </mxCell>
                <mxCell id="624" value="Foto" style="ellipse;whiteSpace=wrap;html=1;" parent="1" vertex="1">
                    <mxGeometry x="3377" y="360" width="190" height="60" as="geometry"/>
                </mxCell>
                <mxCell id="625" value="NombreCompleto" style="ellipse;whiteSpace=wrap;html=1;" parent="1" vertex="1">
                    <mxGeometry x="3387" y="435" width="190" height="60" as="geometry"/>
                </mxCell>
                <mxCell id="626" value="Edad" style="ellipse;whiteSpace=wrap;html=1;" parent="1" vertex="1">
                    <mxGeometry x="3377" y="510" width="190" height="60" as="geometry"/>
                </mxCell>
                <mxCell id="627" value="SobreMi" style="ellipse;whiteSpace=wrap;html=1;" parent="1" vertex="1">
                    <mxGeometry x="3377" y="590" width="190" height="60" as="geometry"/>
                </mxCell>
                <mxCell id="628" style="edgeStyle=orthogonalEdgeStyle;rounded=0;orthogonalLoop=1;jettySize=auto;html=1;entryX=0;entryY=0.5;entryDx=0;entryDy=0;" parent="1" source="633" target="634" edge="1">
                    <mxGeometry relative="1" as="geometry"/>
                </mxCell>
                <mxCell id="629" style="edgeStyle=orthogonalEdgeStyle;rounded=0;orthogonalLoop=1;jettySize=auto;html=1;entryX=0;entryY=0.5;entryDx=0;entryDy=0;" parent="1" source="633" target="635" edge="1">
                    <mxGeometry relative="1" as="geometry">
                        <Array as="points">
                            <mxPoint x="3317" y="750"/>
                            <mxPoint x="3317" y="850"/>
                        </Array>
                    </mxGeometry>
                </mxCell>
                <mxCell id="630" style="edgeStyle=orthogonalEdgeStyle;rounded=0;orthogonalLoop=1;jettySize=auto;html=1;entryX=0;entryY=0.5;entryDx=0;entryDy=0;" parent="1" source="633" target="636" edge="1">
                    <mxGeometry relative="1" as="geometry"/>
                </mxCell>
                <mxCell id="631" style="edgeStyle=orthogonalEdgeStyle;rounded=0;orthogonalLoop=1;jettySize=auto;html=1;entryX=0;entryY=0.5;entryDx=0;entryDy=0;" parent="1" source="633" target="637" edge="1">
                    <mxGeometry relative="1" as="geometry"/>
                </mxCell>
                <mxCell id="632" style="edgeStyle=orthogonalEdgeStyle;rounded=0;orthogonalLoop=1;jettySize=auto;html=1;entryX=0;entryY=0.5;entryDx=0;entryDy=0;" parent="1" source="633" target="638" edge="1">
                    <mxGeometry relative="1" as="geometry"/>
                </mxCell>
                <mxCell id="633" value="Tiene" style="rhombus;whiteSpace=wrap;html=1;" parent="1" vertex="1">
                    <mxGeometry x="3167" y="710" width="80" height="80" as="geometry"/>
                </mxCell>
                <mxCell id="634" value="Categoria" style="ellipse;whiteSpace=wrap;html=1;" parent="1" vertex="1">
                    <mxGeometry x="3387" y="745" width="190" height="60" as="geometry"/>
                </mxCell>
                <mxCell id="635" value="ModalidadTrabajo" style="ellipse;whiteSpace=wrap;html=1;" parent="1" vertex="1">
                    <mxGeometry x="3397" y="820" width="190" height="60" as="geometry"/>
                </mxCell>
                <mxCell id="636" value="FechaPublicacion" style="ellipse;whiteSpace=wrap;html=1;" parent="1" vertex="1">
                    <mxGeometry x="3387" y="895" width="190" height="60" as="geometry"/>
                </mxCell>
                <mxCell id="637" value="UbicacionCliente" style="ellipse;whiteSpace=wrap;html=1;" parent="1" vertex="1">
                    <mxGeometry x="3387" y="975" width="190" height="60" as="geometry"/>
                </mxCell>
                <mxCell id="638" value="Idioma" style="ellipse;whiteSpace=wrap;html=1;" parent="1" vertex="1">
                    <mxGeometry x="3387" y="1070" width="190" height="60" as="geometry"/>
                </mxCell>
                <mxCell id="639" value="" style="ellipse;whiteSpace=wrap;html=1;" parent="1" vertex="1">
                    <mxGeometry x="2807" y="890" width="180" height="45" as="geometry"/>
                </mxCell>
                <mxCell id="640" value="" style="ellipse;whiteSpace=wrap;html=1;" parent="1" vertex="1">
                    <mxGeometry x="2947" y="975" width="180" height="45" as="geometry"/>
                </mxCell>
                <mxCell id="641" style="edgeStyle=orthogonalEdgeStyle;rounded=0;orthogonalLoop=1;jettySize=auto;html=1;entryX=0;entryY=0.5;entryDx=0;entryDy=0;" parent="1" source="647" target="649" edge="1">
                    <mxGeometry relative="1" as="geometry">
                        <Array as="points">
                            <mxPoint x="3957" y="670"/>
                            <mxPoint x="3957" y="830"/>
                        </Array>
                    </mxGeometry>
                </mxCell>
                <mxCell id="642" style="edgeStyle=orthogonalEdgeStyle;rounded=0;orthogonalLoop=1;jettySize=auto;html=1;entryX=0;entryY=0.5;entryDx=0;entryDy=0;" parent="1" source="647" target="657" edge="1">
                    <mxGeometry relative="1" as="geometry">
                        <Array as="points">
                            <mxPoint x="3957" y="670"/>
                            <mxPoint x="3957" y="940"/>
                        </Array>
                    </mxGeometry>
                </mxCell>
                <mxCell id="643" style="edgeStyle=orthogonalEdgeStyle;rounded=0;orthogonalLoop=1;jettySize=auto;html=1;entryX=0;entryY=0.5;entryDx=0;entryDy=0;" parent="1" source="647" target="655" edge="1">
                    <mxGeometry relative="1" as="geometry">
                        <Array as="points">
                            <mxPoint x="3957" y="670"/>
                            <mxPoint x="3957" y="1040"/>
                        </Array>
                    </mxGeometry>
                </mxCell>
                <mxCell id="644" style="edgeStyle=orthogonalEdgeStyle;rounded=0;orthogonalLoop=1;jettySize=auto;html=1;entryX=0;entryY=0.5;entryDx=0;entryDy=0;" parent="1" source="647" target="653" edge="1">
                    <mxGeometry relative="1" as="geometry">
                        <Array as="points">
                            <mxPoint x="3957" y="670"/>
                            <mxPoint x="3957" y="1140"/>
                        </Array>
                    </mxGeometry>
                </mxCell>
                <mxCell id="645" style="edgeStyle=orthogonalEdgeStyle;rounded=0;orthogonalLoop=1;jettySize=auto;html=1;entryX=0;entryY=0.5;entryDx=0;entryDy=0;" parent="1" source="647" target="651" edge="1">
                    <mxGeometry relative="1" as="geometry"/>
                </mxCell>
                <mxCell id="646" style="edgeStyle=orthogonalEdgeStyle;rounded=0;orthogonalLoop=1;jettySize=auto;html=1;entryX=0;entryY=0.5;entryDx=0;entryDy=0;" parent="1" source="647" target="659" edge="1">
                    <mxGeometry relative="1" as="geometry">
                        <Array as="points">
                            <mxPoint x="3957" y="670"/>
                            <mxPoint x="3957" y="1340"/>
                        </Array>
                    </mxGeometry>
                </mxCell>
                <mxCell id="647" value="Tiene" style="rhombus;whiteSpace=wrap;html=1;" parent="1" vertex="1">
                    <mxGeometry x="3847" y="630" width="80" height="80" as="geometry"/>
                </mxCell>
                <mxCell id="648" style="edgeStyle=orthogonalEdgeStyle;rounded=0;orthogonalLoop=1;jettySize=auto;html=1;entryX=0;entryY=0.5;entryDx=0;entryDy=0;" parent="1" source="649" target="662" edge="1">
                    <mxGeometry relative="1" as="geometry"/>
                </mxCell>
                <mxCell id="649" value="TrabajosPrevios" style="ellipse;whiteSpace=wrap;html=1;" parent="1" vertex="1">
                    <mxGeometry x="3997" y="800" width="190" height="60" as="geometry"/>
                </mxCell>
                <mxCell id="650" style="edgeStyle=orthogonalEdgeStyle;rounded=0;orthogonalLoop=1;jettySize=auto;html=1;entryX=0;entryY=0.5;entryDx=0;entryDy=0;" parent="1" source="651" target="685" edge="1">
                    <mxGeometry relative="1" as="geometry"/>
                </mxCell>
                <mxCell id="651" value="Idiomas" style="ellipse;whiteSpace=wrap;html=1;" parent="1" vertex="1">
                    <mxGeometry x="3987" y="1219" width="190" height="60" as="geometry"/>
                </mxCell>
                <mxCell id="652" style="edgeStyle=orthogonalEdgeStyle;rounded=0;orthogonalLoop=1;jettySize=auto;html=1;entryX=0;entryY=0.5;entryDx=0;entryDy=0;" parent="1" source="653" target="681" edge="1">
                    <mxGeometry relative="1" as="geometry"/>
                </mxCell>
                <mxCell id="653" value="Referencias" style="ellipse;whiteSpace=wrap;html=1;" parent="1" vertex="1">
                    <mxGeometry x="3997" y="1110" width="190" height="60" as="geometry"/>
                </mxCell>
                <mxCell id="654" style="edgeStyle=orthogonalEdgeStyle;rounded=0;orthogonalLoop=1;jettySize=auto;html=1;entryX=0;entryY=0.5;entryDx=0;entryDy=0;" parent="1" source="655" target="675" edge="1">
                    <mxGeometry relative="1" as="geometry"/>
                </mxCell>
                <mxCell id="655" value="Educacion" style="ellipse;whiteSpace=wrap;html=1;" parent="1" vertex="1">
                    <mxGeometry x="3997" y="1010" width="190" height="60" as="geometry"/>
                </mxCell>
                <mxCell id="656" style="edgeStyle=orthogonalEdgeStyle;rounded=0;orthogonalLoop=1;jettySize=auto;html=1;" parent="1" source="657" target="666" edge="1">
                    <mxGeometry relative="1" as="geometry"/>
                </mxCell>
                <mxCell id="657" value="HabilidadesTecnicas" style="ellipse;whiteSpace=wrap;html=1;" parent="1" vertex="1">
                    <mxGeometry x="3997" y="910" width="190" height="60" as="geometry"/>
                </mxCell>
                <mxCell id="658" style="edgeStyle=orthogonalEdgeStyle;rounded=0;orthogonalLoop=1;jettySize=auto;html=1;entryX=0.5;entryY=0;entryDx=0;entryDy=0;" parent="1" source="659" target="692" edge="1">
                    <mxGeometry relative="1" as="geometry"/>
                </mxCell>
                <mxCell id="659" value="Certificados" style="ellipse;whiteSpace=wrap;html=1;" parent="1" vertex="1">
                    <mxGeometry x="3997" y="1310" width="190" height="60" as="geometry"/>
                </mxCell>
                <mxCell id="660" style="edgeStyle=orthogonalEdgeStyle;rounded=0;orthogonalLoop=1;jettySize=auto;html=1;entryX=0;entryY=0.5;entryDx=0;entryDy=0;" parent="1" source="662" target="727" edge="1">
                    <mxGeometry relative="1" as="geometry">
                        <Array as="points">
                            <mxPoint x="4677" y="760"/>
                            <mxPoint x="4877" y="760"/>
                            <mxPoint x="4877" y="720"/>
                        </Array>
                        <mxPoint x="4916.999999999865" y="720" as="targetPoint"/>
                    </mxGeometry>
                </mxCell>
                <mxCell id="661" style="edgeStyle=orthogonalEdgeStyle;rounded=0;orthogonalLoop=1;jettySize=auto;html=1;entryX=0;entryY=0.5;entryDx=0;entryDy=0;" parent="1" source="662" target="664" edge="1">
                    <mxGeometry relative="1" as="geometry">
                        <Array as="points">
                            <mxPoint x="4677" y="760"/>
                            <mxPoint x="4877" y="760"/>
                            <mxPoint x="4877" y="830"/>
                            <mxPoint x="4962" y="830"/>
                        </Array>
                        <mxPoint x="4916.999999999865" y="830" as="targetPoint"/>
                    </mxGeometry>
                </mxCell>
                <mxCell id="662" value="Tiene" style="rhombus;whiteSpace=wrap;html=1;" parent="1" vertex="1">
                    <mxGeometry x="4637" y="790" width="80" height="80" as="geometry"/>
                </mxCell>
                <mxCell id="664" value="TiempoExperiencia" style="ellipse;whiteSpace=wrap;html=1;" parent="1" vertex="1">
                    <mxGeometry x="4962" y="800" width="190" height="60" as="geometry"/>
                </mxCell>
                <mxCell id="666" value="Tiene" style="rhombus;whiteSpace=wrap;html=1;" parent="1" vertex="1">
                    <mxGeometry x="4817" y="930" width="80" height="80" as="geometry"/>
                </mxCell>
                <mxCell id="667" value="Descripcion" style="ellipse;whiteSpace=wrap;html=1;" parent="1" vertex="1">
                    <mxGeometry x="5000" y="1060" width="190" height="60" as="geometry"/>
                </mxCell>
                <mxCell id="668" style="edgeStyle=orthogonalEdgeStyle;rounded=0;orthogonalLoop=1;jettySize=auto;html=1;entryX=0;entryY=0.5;entryDx=0;entryDy=0;" parent="1" source="669" target="667" edge="1">
                    <mxGeometry relative="1" as="geometry">
                        <Array as="points">
                            <mxPoint x="4927" y="970"/>
                            <mxPoint x="4927" y="1090"/>
                        </Array>
                        <mxPoint x="4966.999999999865" y="1130" as="targetPoint"/>
                    </mxGeometry>
                </mxCell>
                <mxCell id="669" value="Tiene" style="rhombus;whiteSpace=wrap;html=1;" parent="1" vertex="1">
                    <mxGeometry x="4817" y="930" width="80" height="80" as="geometry"/>
                </mxCell>
                <mxCell id="671" style="edgeStyle=orthogonalEdgeStyle;rounded=0;orthogonalLoop=1;jettySize=auto;html=1;entryX=0;entryY=0.5;entryDx=0;entryDy=0;" parent="1" source="672" target="673" edge="1">
                    <mxGeometry relative="1" as="geometry">
                        <Array as="points">
                            <mxPoint x="4817" y="1150"/>
                            <mxPoint x="4817" y="1310"/>
                        </Array>
                    </mxGeometry>
                </mxCell>
                <mxCell id="672" value="Tiene" style="rhombus;whiteSpace=wrap;html=1;" parent="1" vertex="1">
                    <mxGeometry x="4707" y="1110" width="80" height="80" as="geometry"/>
                </mxCell>
                <mxCell id="673" value="Descripcion" style="ellipse;whiteSpace=wrap;html=1;" parent="1" vertex="1">
                    <mxGeometry x="4857" y="1280" width="190" height="60" as="geometry"/>
                </mxCell>
                <mxCell id="674" style="edgeStyle=orthogonalEdgeStyle;rounded=0;orthogonalLoop=1;jettySize=auto;html=1;entryX=0;entryY=0.5;entryDx=0;entryDy=0;" parent="1" source="675" target="676" edge="1">
                    <mxGeometry relative="1" as="geometry">
                        <Array as="points">
                            <mxPoint x="4817" y="1150"/>
                            <mxPoint x="4817" y="1310"/>
                        </Array>
                    </mxGeometry>
                </mxCell>
                <mxCell id="675" value="Tiene" style="rhombus;whiteSpace=wrap;html=1;" parent="1" vertex="1">
                    <mxGeometry x="4707" y="1110" width="80" height="80" as="geometry"/>
                </mxCell>
                <mxCell id="676" value="Descripcion" style="ellipse;whiteSpace=wrap;html=1;" parent="1" vertex="1">
                    <mxGeometry x="4857" y="1280" width="190" height="60" as="geometry"/>
                </mxCell>
                <mxCell id="677" style="edgeStyle=orthogonalEdgeStyle;rounded=0;orthogonalLoop=1;jettySize=auto;html=1;entryX=0;entryY=0.5;entryDx=0;entryDy=0;" parent="1" source="678" target="679" edge="1">
                    <mxGeometry relative="1" as="geometry">
                        <Array as="points">
                            <mxPoint x="4697" y="1360"/>
                            <mxPoint x="4697" y="1520"/>
                        </Array>
                    </mxGeometry>
                </mxCell>
                <mxCell id="678" value="Tiene" style="rhombus;whiteSpace=wrap;html=1;" parent="1" vertex="1">
                    <mxGeometry x="4587" y="1320" width="80" height="80" as="geometry"/>
                </mxCell>
                <mxCell id="679" value="Descripcion" style="ellipse;whiteSpace=wrap;html=1;" parent="1" vertex="1">
                    <mxGeometry x="4737" y="1490" width="190" height="60" as="geometry"/>
                </mxCell>
                <mxCell id="680" style="edgeStyle=orthogonalEdgeStyle;rounded=0;orthogonalLoop=1;jettySize=auto;html=1;entryX=0;entryY=0.5;entryDx=0;entryDy=0;" parent="1" source="681" target="682" edge="1">
                    <mxGeometry relative="1" as="geometry">
                        <Array as="points">
                            <mxPoint x="4697" y="1360"/>
                            <mxPoint x="4697" y="1520"/>
                        </Array>
                    </mxGeometry>
                </mxCell>
                <mxCell id="681" value="Tiene" style="rhombus;whiteSpace=wrap;html=1;" parent="1" vertex="1">
                    <mxGeometry x="4587" y="1320" width="80" height="80" as="geometry"/>
                </mxCell>
                <mxCell id="682" value="NivelCompetencias" style="ellipse;whiteSpace=wrap;html=1;" parent="1" vertex="1">
                    <mxGeometry x="4737" y="1490" width="190" height="60" as="geometry"/>
                </mxCell>
                <mxCell id="683" style="edgeStyle=orthogonalEdgeStyle;rounded=0;orthogonalLoop=1;jettySize=auto;html=1;entryX=0;entryY=0.5;entryDx=0;entryDy=0;" parent="1" source="685" target="686" edge="1">
                    <mxGeometry relative="1" as="geometry">
                        <Array as="points">
                            <mxPoint x="4547" y="1520"/>
                            <mxPoint x="4547" y="1680"/>
                        </Array>
                    </mxGeometry>
                </mxCell>
                <mxCell id="684" style="edgeStyle=orthogonalEdgeStyle;rounded=0;orthogonalLoop=1;jettySize=auto;html=1;entryX=0;entryY=0.5;entryDx=0;entryDy=0;" parent="1" source="685" target="687" edge="1">
                    <mxGeometry relative="1" as="geometry">
                        <Array as="points">
                            <mxPoint x="4547" y="1520"/>
                            <mxPoint x="4547" y="1790"/>
                        </Array>
                    </mxGeometry>
                </mxCell>
                <mxCell id="685" value="Tiene" style="rhombus;whiteSpace=wrap;html=1;" parent="1" vertex="1">
                    <mxGeometry x="4437" y="1480" width="80" height="80" as="geometry"/>
                </mxCell>
                <mxCell id="686" value="Descripcion" style="ellipse;whiteSpace=wrap;html=1;" parent="1" vertex="1">
                    <mxGeometry x="4587" y="1650" width="190" height="60" as="geometry"/>
                </mxCell>
                <mxCell id="687" value="NivelCompetencia" style="ellipse;whiteSpace=wrap;html=1;" parent="1" vertex="1">
                    <mxGeometry x="4587" y="1760" width="190" height="60" as="geometry"/>
                </mxCell>
                <mxCell id="688" style="edgeStyle=orthogonalEdgeStyle;rounded=0;orthogonalLoop=1;jettySize=auto;html=1;entryX=0;entryY=0.5;entryDx=0;entryDy=0;" parent="1" source="689" target="690" edge="1">
                    <mxGeometry relative="1" as="geometry">
                        <Array as="points">
                            <mxPoint x="4286" y="1680"/>
                            <mxPoint x="4286" y="1840"/>
                        </Array>
                    </mxGeometry>
                </mxCell>
                <mxCell id="689" value="Tiene" style="rhombus;whiteSpace=wrap;html=1;" parent="1" vertex="1">
                    <mxGeometry x="4176" y="1640" width="80" height="80" as="geometry"/>
                </mxCell>
                <mxCell id="690" value="Descripcion" style="ellipse;whiteSpace=wrap;html=1;" parent="1" vertex="1">
                    <mxGeometry x="4326" y="1810" width="190" height="60" as="geometry"/>
                </mxCell>
                <mxCell id="691" style="edgeStyle=orthogonalEdgeStyle;rounded=0;orthogonalLoop=1;jettySize=auto;html=1;entryX=0;entryY=0.5;entryDx=0;entryDy=0;" parent="1" source="692" target="693" edge="1">
                    <mxGeometry relative="1" as="geometry">
                        <Array as="points">
                            <mxPoint x="4286" y="1680"/>
                            <mxPoint x="4286" y="1840"/>
                        </Array>
                    </mxGeometry>
                </mxCell>
                <mxCell id="692" value="Tiene" style="rhombus;whiteSpace=wrap;html=1;" parent="1" vertex="1">
                    <mxGeometry x="4176" y="1640" width="80" height="80" as="geometry"/>
                </mxCell>
                <mxCell id="693" value="FotoDiploma" style="ellipse;whiteSpace=wrap;html=1;" parent="1" vertex="1">
                    <mxGeometry x="4326" y="1810" width="190" height="60" as="geometry"/>
                </mxCell>
                <mxCell id="694" value="Fin" style="rounded=0;whiteSpace=wrap;html=1;" parent="1" vertex="1">
                    <mxGeometry x="4537" y="220" width="120" height="60" as="geometry"/>
                </mxCell>
                <mxCell id="720" value="Token" style="ellipse;whiteSpace=wrap;html=1;" parent="1" vertex="1">
                    <mxGeometry x="35" y="1510" width="235" height="60" as="geometry"/>
                </mxCell>
                <mxCell id="723" value="" style="edgeStyle=orthogonalEdgeStyle;rounded=0;orthogonalLoop=1;jettySize=auto;html=1;entryX=0;entryY=0.5;entryDx=0;entryDy=0;endArrow=none;" parent="1" source="545" edge="1">
                    <mxGeometry relative="1" as="geometry">
                        <mxPoint x="-180" y="490" as="sourcePoint"/>
                        <mxPoint x="-60" y="490" as="targetPoint"/>
                    </mxGeometry>
                </mxCell>
                <mxCell id="724" value="Claves Foraneas" style="whiteSpace=wrap;html=1;aspect=fixed;fontSize=17;" parent="1" vertex="1">
                    <mxGeometry x="-120" y="930" width="100" height="100" as="geometry"/>
                </mxCell>
                <mxCell id="727" value="Descripcion" style="ellipse;whiteSpace=wrap;html=1;" parent="1" vertex="1">
                    <mxGeometry x="4950" y="690" width="190" height="60" as="geometry"/>
                </mxCell>
            </root>
        </mxGraphModel>
    </diagram>
</mxfile>